<mxfile host="app.diagrams.net" modified="2024-06-20T14:17:47.996Z" agent="Mozilla/5.0 (Windows NT 10.0; Win64; x64) AppleWebKit/537.36 (KHTML, like Gecko) Chrome/126.0.0.0 Safari/537.36" version="24.5.5" etag="vNv87vsH_XjAnne1IilM" type="github">
  <diagram name="หน้า-1" id="LAIXQtwPY8W9fyynnYne">
    <mxGraphModel>
      <root>
        <mxCell id="0" />
        <mxCell id="1" parent="0" />
      </root>
    </mxGraphModel>
  </diagram>
</mxfile>
